<svg width="25" height="24" viewBox="0 0 25 24" fill="none" xmlns="http://www.w3.org/2000/svg">
<path d="M21.368 10.6483C21.2069 8.65695 20.9309 6.67655 20.5414 4.71699C20.5029 4.3104 20.3845 3.91549 20.1938 3.55382C19.8197 3.04968 19.306 2.66635 18.7162 2.45132C17.6732 1.9759 16.5724 1.63815 15.4419 1.44799C14.4862 1.28284 13.5179 1.20164 12.548 1.20532C11.5725 1.20046 10.5985 1.28205 9.63719 1.44799C8.5068 1.63865 7.4061 1.97594 6.36294 2.45132C5.77338 2.66645 5.25985 3.04977 4.88594 3.55382C4.69452 3.9148 4.57656 4.31014 4.53886 4.71699C4.15722 6.67727 3.88652 8.65753 3.72803 10.6483M21.368 10.6483V19.9537H19.8852M21.368 10.6483H3.72803M19.8852 19.9537V21.4365C19.8976 21.6102 19.874 21.7846 19.8161 21.9488C19.7581 22.113 19.667 22.2635 19.5483 22.3909C19.4296 22.5183 19.286 22.62 19.1263 22.6895C18.9666 22.7589 18.7944 22.7948 18.6202 22.7948C18.4461 22.7948 18.2738 22.7589 18.1142 22.6895C17.9545 22.62 17.8109 22.5183 17.6922 22.3909C17.5735 22.2635 17.4824 22.113 17.4244 21.9488C17.3664 21.7846 17.3429 21.6102 17.3553 21.4365V19.9537H7.74136V21.4365C7.75314 21.6099 7.72916 21.7838 7.67091 21.9475C7.61266 22.1113 7.52138 22.2613 7.40273 22.3882C7.28409 22.5152 7.14062 22.6165 6.98122 22.6857C6.82182 22.7549 6.64989 22.7906 6.47611 22.7906C6.30233 22.7906 6.13041 22.7549 5.97101 22.6857C5.81161 22.6165 5.66813 22.5152 5.54949 22.3882C5.43085 22.2613 5.33957 22.1113 5.28131 21.9475C5.22306 21.7838 5.19908 21.6099 5.21086 21.4365V19.9537M19.8852 19.9537H5.21086M5.21086 19.9537H3.72803V10.6483M9.62436 16.9005H15.4717M9.62436 14.9697H15.4717M6.48428 14.6062C6.22144 14.605 5.96413 14.6817 5.74489 14.8267C5.52565 14.9716 5.35433 15.1784 5.2526 15.4207C5.15087 15.6631 5.1233 15.9302 5.17338 16.1882C5.22345 16.4462 5.34893 16.6836 5.53392 16.8703C5.71892 17.0571 5.95514 17.1847 6.21269 17.2372C6.47025 17.2896 6.73757 17.2645 6.98086 17.165C7.22414 17.0655 7.43246 16.8961 7.57946 16.6782C7.72646 16.4603 7.80554 16.2037 7.80669 15.9409V15.9292C7.80677 15.7555 7.77262 15.5835 7.7062 15.423C7.63978 15.2625 7.54238 15.1166 7.41957 14.9938C7.29677 14.8709 7.15096 14.7734 6.99048 14.707C6.83 14.6405 6.65799 14.6062 6.48428 14.6062ZM18.6118 14.6062C18.3489 14.6061 18.092 14.684 17.8734 14.8299C17.6548 14.9758 17.4843 15.1833 17.3837 15.4261C17.283 15.6689 17.2566 15.9361 17.3078 16.194C17.359 16.4518 17.4855 16.6886 17.6714 16.8745C17.8572 17.0604 18.094 17.187 18.3517 17.2383C18.6095 17.2896 18.8767 17.2634 19.1196 17.1628C19.3624 17.0622 19.57 16.8919 19.716 16.6734C19.8621 16.4549 19.94 16.1979 19.94 15.9351V15.9292C19.9411 15.58 19.8036 15.2446 19.5576 14.9967C19.3116 14.7487 18.9774 14.6085 18.6281 14.6068L18.6118 14.6062Z" stroke="#7D7AB4" stroke-linecap="round" stroke-linejoin="round"/>
</svg>
