<svg width="27" height="22" viewBox="0 0 27 22" fill="none" xmlns="http://www.w3.org/2000/svg">
<path d="M22.1968 11.4747C21.7002 11.4414 21.2437 11.7474 21.086 12.2195L20.8966 12.7896C20.7782 13.1529 20.858 13.5517 21.107 13.8415C21.3123 14.0871 21.6159 14.2289 21.9359 14.2286C21.9892 14.2318 22.0426 14.2318 22.0958 14.2286C24.0103 13.9488 24.4101 13.1662 24.4101 12.5582C24.4038 11.7103 23.1541 11.5336 22.1968 11.4747ZM21.9612 13.3682C21.8819 13.3849 21.8001 13.3546 21.7508 13.2903C21.6965 13.2288 21.6796 13.1427 21.7066 13.0652L21.8959 12.4951C21.9313 12.3955 22.0282 12.3312 22.1337 12.3373C22.6122 12.3302 23.0867 12.4241 23.5264 12.6129C23.4486 13.1094 22.3125 13.3135 21.9612 13.3661V13.3682Z" fill="#E6007E"/>
<path d="M15.4145 12.2196C15.2573 11.7471 14.8004 11.4407 14.3036 11.4748C13.3548 11.5337 12.0967 11.7105 12.0967 12.5499C12.0967 13.1579 12.4985 13.9405 14.4109 14.2203C14.4635 14.2236 14.5161 14.2236 14.5687 14.2203C14.8887 14.2206 15.1924 14.0788 15.3976 13.8332C15.6467 13.5434 15.7264 13.1446 15.608 12.7813L15.4145 12.2196ZM14.7412 13.2883C14.6938 13.3488 14.6172 13.3787 14.5413 13.3662C14.1837 13.3136 13.0518 13.1095 12.9656 12.6109C13.4053 12.4221 13.8799 12.3282 14.3583 12.3353C14.464 12.3285 14.5613 12.393 14.5961 12.4931L14.7854 13.0632C14.8118 13.1411 14.7941 13.2272 14.7391 13.2883H14.7412Z" fill="#E6007E"/>
<path d="M15.2291 2.57822H21.2714C21.5096 2.57822 21.7027 2.38513 21.7027 2.14693C21.7027 1.90873 21.5096 1.71564 21.2714 1.71564H15.2291C14.9909 1.71564 14.7979 1.90873 14.7979 2.14693C14.7979 2.38513 14.9909 2.57822 15.2291 2.57822Z" fill="#E6007E"/>
<path d="M8.46044 21.1374L1.41674 16.166V15.0005L11.5278 21.1374H8.46044ZM24.5949 21.1374H13.192L1.41043 13.9843V12.8062L1.42727 12.8167L6.20721 15.5117L11.4332 18.4571C12.0643 18.9915 13.0931 19.4123 14.7993 19.4123H21.7021C21.8031 19.4123 21.8914 19.4123 21.9882 19.4017L24.5949 21.1374ZM5.95686 3.91527C5.80309 4.46289 5.728 5.02959 5.73385 5.59835V6.25476L3.57529 6.73864V6.02964C3.5708 5.55849 3.65355 5.09057 3.81934 4.64951L5.95686 3.91527ZM19.9138 9.48417C19.7208 8.72253 19.0354 8.18911 18.2497 8.18911C17.4639 8.18911 16.7785 8.72253 16.5855 9.48417H15.3232C14.9107 9.482 14.5434 9.22232 14.4038 8.83408C13.8772 7.36509 13.4959 5.84796 13.2656 4.30449L23.2316 4.30449C23.0051 5.84787 22.6266 7.36509 22.1018 8.83408C21.9623 9.22232 21.595 9.482 21.1824 9.48417H19.9138ZM18.9965 9.48417H17.5028C17.6569 9.21743 17.9416 9.05314 18.2497 9.05314C18.5577 9.05314 18.8424 9.21743 18.9965 9.48417ZM10.9914 2.33107C10.9514 2.4005 10.9135 2.47413 10.8799 2.54146C10.8672 2.5667 10.8546 2.58985 10.8441 2.61509C10.7978 2.72028 10.7578 2.82548 10.7221 2.93697L10.6968 3.02324C10.6716 3.1095 10.6463 3.19786 10.6253 3.29043C10.6253 3.33461 10.6085 3.38089 10.598 3.42718C10.5811 3.51133 10.5664 3.59549 10.5559 3.68595C10.5559 3.73435 10.5411 3.78484 10.5348 3.83533C10.5222 3.93 10.5138 4.02888 10.5075 4.12776C10.5075 4.17404 10.5075 4.21823 10.5075 4.26662C10.5075 4.41389 10.4928 4.56957 10.4928 4.72526V16.3806C10.4928 16.4395 10.4928 16.5152 10.4928 16.591C10.4991 16.7097 10.5138 16.8278 10.5369 16.9444L6.78157 14.8301C6.65082 14.3503 6.5885 13.8545 6.59643 13.3574V11.912L8.09227 12.3328C8.35198 12.4042 8.63014 12.3506 8.84463 12.1876C9.05912 12.0247 9.18544 11.7711 9.18627 11.5018V6.56823C9.18627 6.3062 9.06715 6.05836 8.86254 5.89467C8.65793 5.73097 8.38999 5.66916 8.13435 5.72669L6.59432 6.06751V5.59835C6.5621 4.89095 6.70672 4.18667 7.01509 3.54921L11.105 2.14593C11.0839 2.17749 11.065 2.21115 11.044 2.24481C11.025 2.27338 11.0074 2.30286 10.9914 2.33317V2.33107ZM3.71625 13.1154C3.62224 12.7727 3.57483 12.4189 3.5753 12.0635L3.57529 11.0705L5.73385 11.6701V13.3532C5.73349 13.6599 5.75316 13.9663 5.79275 14.2704L3.71625 13.1154ZM3.57529 7.62436L5.73385 7.14469V10.7865L3.57529 10.1869V7.62436ZM2.71271 9.93861L1.41674 9.57885V8.09352L2.71271 7.8074V9.93861ZM6.59643 6.94272L8.32368 6.55982V11.5144L6.59643 11.0347V6.94272ZM1.99951 5.25964L2.8158 4.99245C2.74581 5.33299 2.71126 5.67987 2.71271 6.02754V6.93009L1.41674 7.21621V6.08855C1.41812 5.72085 1.65189 5.39424 1.99951 5.27436V5.25964ZM1.41674 10.4835L2.71271 10.8433V12.074C2.71271 12.2381 2.71271 12.4022 2.73374 12.5621L1.85644 12.0677C1.58474 11.9154 1.41656 11.6281 1.41674 11.3166V10.4835ZM21.2708 18.5476H15.6598V16.8203C15.6598 16.5821 15.8529 16.389 16.0911 16.389H20.8395C21.0777 16.389 21.2708 16.5821 21.2708 16.8203V18.5476ZM25.1545 4.73577V16.389C25.1545 17.6682 24.0605 18.4382 22.1334 18.5349V16.8203C22.1334 16.1057 21.5541 15.5264 20.8395 15.5264H16.0911C15.3765 15.5264 14.7972 16.1057 14.7972 16.8203V18.5476C13.4739 18.5476 12.4935 18.2593 11.9213 17.7313C11.8405 17.6575 11.7659 17.5773 11.6983 17.4914C11.6884 17.4772 11.6793 17.4624 11.6709 17.4473C11.6139 17.3676 11.5639 17.2831 11.5215 17.1948L11.49 17.1296C11.4476 17.0297 11.4145 16.9262 11.3911 16.8203L11.3785 16.7467C11.3557 16.6288 11.3445 16.5091 11.3448 16.389V4.73577C11.3448 3.35144 11.6941 2.72028 11.9907 2.43416C12.0266 2.40035 12.0646 2.36874 12.1043 2.33948C12.1226 2.32427 12.1423 2.31087 12.1632 2.29951C12.1787 2.288 12.1948 2.27746 12.2116 2.26795C12.2116 2.43836 12.2242 2.60667 12.2348 2.77499V2.81706C12.2579 3.19154 12.2916 3.56183 12.3357 3.92158C12.5608 5.69566 12.9798 7.43968 13.5854 9.12231C13.8489 9.85245 14.5407 10.34 15.3169 10.3425H21.1656C21.9418 10.34 22.6336 9.85245 22.8971 9.1223C23.503 7.43989 23.9214 5.69576 24.1447 3.92158L24.1447 3.91107C24.1888 3.5513 24.2246 3.18102 24.2477 2.80653V2.76446C24.2477 2.59616 24.2667 2.42784 24.2709 2.25743C24.3544 2.30392 24.4309 2.362 24.4981 2.42995C24.8053 2.72028 25.1545 3.35144 25.1545 4.73577ZM22.1502 0.889931C22.1923 0.889931 22.226 0.908861 22.2659 0.919387H22.2785C22.3613 0.939963 22.4428 0.965256 22.5226 0.995126C22.5668 1.01195 22.6068 1.03088 22.6467 1.04982C22.7057 1.07563 22.7632 1.10441 22.8192 1.13608C22.855 1.15712 22.8887 1.18026 22.9223 1.2034C22.956 1.22655 23.0107 1.26863 23.0507 1.30228L23.1306 1.37381C23.1643 1.40959 23.1958 1.44114 23.2232 1.4748L23.28 1.54212C23.3031 1.57579 23.3221 1.60734 23.3431 1.6368L23.3789 1.6915L23.4167 1.76303C23.4167 1.77565 23.4294 1.79038 23.4336 1.8009C23.4336 2.04284 23.4336 2.2911 23.4125 2.54356C23.4125 2.58564 23.4125 2.63403 23.4125 2.68031C23.3978 2.93277 23.3789 3.18734 23.3536 3.44611H13.1604C13.1331 3.18734 13.1163 2.92856 13.0994 2.6761V2.54356C13.0868 2.2932 13.0784 2.04494 13.0763 1.803C13.1605 1.62908 13.276 1.47217 13.4171 1.34015C13.4467 1.30929 13.4783 1.28047 13.5118 1.25389H13.5223C13.5849 1.20397 13.6518 1.15962 13.7222 1.12136L13.7516 1.10242C13.8326 1.06042 13.9162 1.02388 14.002 0.993023L14.0546 0.976196C14.1548 0.942806 14.2575 0.917477 14.3618 0.900448H14.4144C14.5432 0.881931 14.6733 0.872778 14.8036 0.873104H21.7021C21.8517 0.866028 22.0016 0.871652 22.1502 0.889931ZM0.554162 16.389C0.552067 16.5301 0.620801 16.6628 0.7372 16.7425L8.07333 21.92C8.1461 21.9727 8.23385 22.0008 8.32368 22H26.0192C26.2099 22.0009 26.3786 21.8764 26.4339 21.6938C26.4892 21.5113 26.4181 21.3141 26.259 21.2089L23.3137 19.2503C25.7836 18.7201 26.015 16.9865 26.015 16.389V4.73577C26.015 3.35775 25.6994 2.36473 25.0746 1.79038C24.8169 1.54553 24.494 1.38041 24.1447 1.31491C24.1173 1.26651 24.0837 1.21182 24.0479 1.15712L24.0184 1.11084C23.9237 0.971954 23.8144 0.843595 23.6923 0.727936L23.6418 0.67954C23.4841 0.537769 23.3087 0.416865 23.1201 0.319784L23.0422 0.281914C22.9293 0.227341 22.8126 0.180934 22.693 0.143065C22.5607 0.102757 22.4257 0.0718228 22.2891 0.0504898L22.1797 0.0357662C22.0207 0.0133947 21.8605 0.00144332 21.7 0H14.7972C14.6374 0.00136411 14.4779 0.0133155 14.3197 0.0357662L14.2082 0.0504898C13.9476 0.0925838 13.6942 0.170462 13.455 0.281914L13.3771 0.319784C13.2148 0.403461 13.0624 0.505083 12.9227 0.62274L3.35018 3.89845L1.7197 4.45807C1.6145 4.49628 1.51308 4.54417 1.41674 4.60113C1.41674 4.60113 0.547852 4.60113 0.547852 5.33748C0.547852 6.07382 0.554162 16.389 0.554162 16.389Z" fill="#E6007E"/>
</svg>
