<svg width="26" height="25" viewBox="0 0 26 25" fill="none" xmlns="http://www.w3.org/2000/svg">
<path d="M12.9641 24.8325C10.5084 24.8325 8.10785 24.1043 6.06601 22.74C4.02417 21.3757 2.43274 19.4365 1.49299 17.1677C0.553231 14.899 0.307348 12.4025 0.786432 9.99397C1.26552 7.58545 2.44805 5.37309 4.18449 3.63664C5.92094 1.9002 8.1333 0.717664 10.5418 0.23858C12.9503 -0.240503 15.4468 0.00537992 17.7156 0.945136C19.9844 1.88489 21.9235 3.47631 23.2878 5.51816C24.6522 7.56 25.3804 9.96055 25.3804 12.4163C25.3767 15.7081 24.0674 18.8641 21.7397 21.1918C19.412 23.5196 16.256 24.8289 12.9641 24.8325ZM12.9641 1.25001C10.7556 1.25001 8.59675 1.9049 6.76047 3.13186C4.92419 4.35882 3.49298 6.10275 2.64784 8.14312C1.80269 10.1835 1.58156 12.4286 2.01241 14.5947C2.44327 16.7607 3.50675 18.7504 5.06838 20.312C6.63 21.8736 8.61964 22.9371 10.7857 23.3679C12.9517 23.7988 15.1969 23.5777 17.2372 22.7325C19.2776 21.8874 21.0215 20.4562 22.2485 18.6199C23.4755 16.7836 24.1304 14.6247 24.1304 12.4163C24.127 9.4558 22.9495 6.61754 20.8562 4.52418C18.7628 2.43082 15.9246 1.25331 12.9641 1.25001Z" fill="#5CC9E6"/>
<path d="M13.6758 8.04126H11.4883C11.2396 8.04126 11.0012 8.14003 10.8254 8.31585C10.6496 8.49166 10.5508 8.73012 10.5508 8.97876V16.1538C10.5508 16.3195 10.6166 16.4785 10.7338 16.5957C10.851 16.7129 11.01 16.7788 11.1758 16.7788C11.3415 16.7788 11.5005 16.7129 11.6177 16.5957C11.7349 16.4785 11.8008 16.3195 11.8008 16.1538V14.2913H13.6758C14.5046 14.2913 15.2994 13.962 15.8855 13.376C16.4715 12.7899 16.8008 11.9951 16.8008 11.1663C16.8008 10.3375 16.4715 9.5426 15.8855 8.95655C15.2994 8.3705 14.5046 8.04126 13.6758 8.04126ZM13.6758 13.0413H11.8008V9.29126H13.6758C14.1731 9.29126 14.65 9.4888 15.0016 9.84043C15.3532 10.1921 15.5508 10.669 15.5508 11.1663C15.5508 11.6635 15.3532 12.1405 15.0016 12.4921C14.65 12.8437 14.1731 13.0413 13.6758 13.0413Z" fill="#5CC9E6"/>
</svg>
