<svg width="72" height="72" viewBox="0 0 72 72" fill="none" xmlns="http://www.w3.org/2000/svg">
<g filter="url(#filter0_d_237_750)">
<path d="M68.6738 32.6738C68.6738 50.7191 54.0453 65.3477 36 65.3477C17.9547 65.3477 3.32617 50.7191 3.32617 32.6738C3.32617 14.6286 17.9547 0 36 0C54.0453 0 68.6738 14.6286 68.6738 32.6738Z" fill="white"/>
</g>
<path d="M38.9206 16.7188C39.2938 16.7773 39.6675 16.8318 40.0399 16.8948C44.7969 17.6989 48.5299 22.0411 48.6393 26.8766C48.6966 29.4087 47.9802 31.6832 46.4479 33.7013C45.1746 35.3784 44.0631 37.1441 43.2738 39.1124C42.0786 42.0935 40.0763 44.4229 37.3393 46.0945C35.727 47.0794 33.9785 47.6447 32.0565 47.3803C30.0436 47.1035 28.5827 46.0904 27.9939 44.0757C27.7943 43.3929 27.6951 42.6668 27.654 41.9545C27.5626 40.3684 27.9461 38.8635 28.5723 37.413C29.4334 35.4184 29.3675 33.433 28.509 31.4519C27.7192 29.6294 27.4776 27.7331 27.7476 25.7625C28.3082 21.6708 31.4584 18.1019 35.4539 17.0818C36.0795 16.922 36.7243 16.8379 37.3603 16.7188H38.9206ZM39.3209 18.5947C34.8861 17.9524 30.4646 21.1075 29.6157 25.5107C29.273 27.2886 29.4273 29.0128 30.1399 30.6778C30.7925 32.203 31.1146 33.7783 30.9399 35.4408C30.8484 36.3117 30.634 37.1506 30.2907 37.9546C29.7392 39.2457 29.3611 40.5737 29.449 41.9942C29.4761 42.4311 29.5286 42.873 29.6323 43.2972C29.9656 44.6615 30.8272 45.4002 32.2278 45.5887C33.7869 45.7987 35.179 45.3169 36.4701 44.5179C38.8365 43.0537 40.5717 41.0273 41.6046 38.4399C42.4237 36.3882 43.5563 34.5281 44.8912 32.7844C45.8647 31.513 46.5296 30.1163 46.748 28.5227C46.805 28.1077 46.8279 27.688 46.8664 27.2705C46.8381 22.8827 43.6653 19.2239 39.3209 18.5947Z" fill="#E6067E"/>
<path d="M33.8023 29.9524C34.8866 28.4739 37.1231 28.3129 38.5201 29.5748C39.9104 30.8307 40.0275 32.8454 38.7674 34.2419C38.1305 34.9478 37.8289 35.7596 37.8402 36.7003C37.8485 37.3977 37.561 37.9302 36.9091 38.2027C36.2676 38.471 35.7009 38.2985 35.2123 37.8161C34.8154 37.4242 34.2631 37.4149 33.9014 37.7806C33.5455 38.1404 33.5566 38.6703 33.9283 39.0721C34.8418 40.0598 36.2678 40.388 37.5311 39.9013C38.7701 39.4239 39.6389 38.2124 39.6296 36.8905C39.6252 36.2623 39.8277 35.7764 40.2302 35.2914C41.4788 33.7864 41.8048 32.0663 41.0938 30.2392C40.376 28.3944 38.9939 27.2821 37.0193 26.977C35.6816 26.7703 34.4649 27.1205 33.3615 27.8898C33.2961 27.9354 33.2302 27.9804 33.1637 28.0245C33.1572 28.0288 33.1447 28.0239 33.1039 28.0213C32.888 26.5354 33.2334 25.1942 34.1747 24.0224C35.5442 22.3176 37.7654 21.7001 39.8508 22.4175C41.8253 23.0968 43.1916 24.9958 43.2404 27.1289C43.2542 27.7295 43.6359 28.1368 44.1691 28.1199C44.692 28.1034 45.0448 27.6923 45.0403 27.1046C45.0141 23.6936 42.3313 20.7321 38.9407 20.3714C35.2003 19.9734 31.871 22.4923 31.322 26.1943C30.9857 28.462 31.6547 30.4418 33.2579 32.092C33.6423 32.4877 34.2081 32.5026 34.5694 32.1454C34.9378 31.7811 34.9198 31.2541 34.5405 30.8315C34.2824 30.5437 34.0424 30.2396 33.8023 29.9524Z" fill="#E6067E"/>
<defs>
<filter id="filter0_d_237_750" x="0.326172" y="0" width="71.3477" height="71.3477" filterUnits="userSpaceOnUse" color-interpolation-filters="sRGB">
<feFlood flood-opacity="0" result="BackgroundImageFix"/>
<feColorMatrix in="SourceAlpha" type="matrix" values="0 0 0 0 0 0 0 0 0 0 0 0 0 0 0 0 0 0 127 0" result="hardAlpha"/>
<feOffset dy="3"/>
<feGaussianBlur stdDeviation="1.5"/>
<feComposite in2="hardAlpha" operator="out"/>
<feColorMatrix type="matrix" values="0 0 0 0 0 0 0 0 0 0 0 0 0 0 0 0 0 0 0.160784 0"/>
<feBlend mode="normal" in2="BackgroundImageFix" result="effect1_dropShadow_237_750"/>
<feBlend mode="normal" in="SourceGraphic" in2="effect1_dropShadow_237_750" result="shape"/>
</filter>
</defs>
</svg>
