<svg width="72" height="72" viewBox="0 0 72 72" fill="none" xmlns="http://www.w3.org/2000/svg">
<g filter="url(#filter0_d_294_2190)">
<path d="M68.6738 33C68.6738 51.0453 54.0453 65.6738 36 65.6738C17.9547 65.6738 3.32617 51.0453 3.32617 33C3.32617 14.9547 17.9547 0.326172 36 0.326172C54.0453 0.326172 68.6738 14.9547 68.6738 33Z" fill="white"/>
</g>
<path d="M47.9941 47.2392H34.885C34.8244 47.2204 34.765 47.1952 34.703 47.1837C33.484 46.957 32.4612 45.9449 32.2578 44.744C32.2053 44.4337 32.2778 44.0733 32.1431 43.8141C32.0074 43.5533 31.6704 43.4047 31.4471 43.1815C28.7844 40.5207 26.1338 37.8475 23.462 35.1957C22.7743 34.5131 22.1523 33.8145 22 32.8135V32.0276C22.0158 31.9953 22.0406 31.9644 22.0461 31.9303C22.1525 31.2718 22.4502 30.7113 22.9179 30.2423C26.3276 26.8238 29.737 23.405 33.1554 19.9954C33.3035 19.8477 33.5302 19.7278 33.7354 19.6971C35.8651 19.3785 37.9983 19.0832 40.1296 18.7759C40.6984 18.6938 41.2645 18.5925 41.8317 18.5H42.3359C42.5508 18.6728 42.7807 18.8301 42.9777 19.0215C43.4855 19.5146 43.9785 20.0229 44.4904 20.5382C44.9332 20.0927 45.3524 19.655 45.7898 19.2366C46.0622 18.9761 46.3621 18.7446 46.6496 18.5H47.0978C47.1165 18.518 47.1324 18.5417 47.1546 18.5531C47.785 18.8771 47.8916 19.4883 47.4045 19.9953C47.3269 20.076 47.2465 20.1541 47.1672 20.2334C46.6739 20.7265 46.1804 21.2197 45.6774 21.7224C46.2663 22.3118 46.8324 22.8809 47.4018 23.4467C47.628 23.6714 47.7445 23.9319 47.6972 24.2544C47.6742 24.4114 47.6609 24.5711 47.6231 24.7246C47.5717 24.9335 47.629 25.0932 47.7585 25.264C48.6383 26.4251 49.5029 27.5976 50.3834 28.7581C50.5911 29.0319 50.6886 29.3148 50.6878 29.6613C50.6798 32.8491 50.6831 36.0369 50.6831 39.2247C50.683 40.87 50.6912 42.5154 50.6798 44.1606C50.6703 45.524 49.8001 46.6951 48.5271 47.0924C48.3513 47.1473 48.1718 47.1905 47.9941 47.2392ZM43.2803 21.702C42.8274 21.2483 42.3696 20.7821 41.8996 20.3286C41.8409 20.272 41.7137 20.2535 41.625 20.266C39.2053 20.6082 36.7862 20.9553 34.368 21.3089C34.2589 21.3249 34.1375 21.387 34.0593 21.4652C30.7486 24.7749 27.4408 28.0875 24.1363 31.4034C23.517 32.0248 23.5176 32.8534 24.1346 33.4725C27.0103 36.3584 29.8884 39.2419 32.7681 42.1237C33.3745 42.7304 34.2079 42.7371 34.8124 42.1324C38.1287 38.815 41.4412 35.4938 44.7517 32.1706C44.825 32.097 44.8908 31.9882 44.9054 31.8878C45.2597 29.4467 45.6073 27.0046 45.9514 24.5621C45.9617 24.4889 45.9472 24.3836 45.9007 24.3354C45.4416 23.8592 44.9732 23.3919 44.5417 22.9567C44.1356 23.3637 43.7495 23.7505 43.3439 24.1571C43.494 24.3041 43.6694 24.4705 43.8385 24.6431C44.2156 25.0279 44.2362 25.5501 43.8917 25.8923C43.5447 26.2371 43.0345 26.2145 42.6465 25.8281C41.8916 25.0765 41.1389 24.3228 40.3891 23.566C40.0062 23.1796 39.9883 22.6633 40.3354 22.319C40.6804 21.9771 41.1967 22.0022 41.582 22.3812C41.7586 22.5548 41.933 22.7305 42.0922 22.889C42.5035 22.4781 42.8857 22.0963 43.2803 21.702ZM33.8955 44.2715C33.9767 45.0507 34.5459 45.5541 35.3424 45.5544C39.4027 45.5564 43.463 45.5564 47.5233 45.5546C48.4061 45.5542 49.0013 44.9602 49.0017 44.0772C49.0036 39.3637 49.0036 34.6501 48.9972 29.9365C48.997 29.8091 48.9449 29.6614 48.8695 29.5577C48.3971 28.9079 47.9117 28.2675 47.4292 27.6252C47.3837 27.5646 47.3277 27.5118 47.2639 27.4415C47.2409 27.5008 47.2259 27.5252 47.2222 27.5511C46.9922 29.1698 46.7724 30.79 46.5242 32.4059C46.487 32.6481 46.3708 32.9229 46.2016 33.0934C42.813 36.5095 39.4112 39.9126 36.0119 43.318C35.5722 43.7584 35.0519 44.0558 34.4425 44.1868C34.2621 44.2256 34.0772 44.2439 33.8955 44.2715Z" fill="#E6007E"/>
<path d="M32.5985 38.4342C32.0114 38.4294 31.6336 37.8825 31.8242 37.2899C32.0899 36.4642 32.3711 35.6434 32.6449 34.8203C33.6726 31.7314 34.6998 28.6424 35.7278 25.5537C35.9005 25.035 36.2866 24.7708 36.7278 24.8657C37.2558 24.9793 37.5228 25.4821 37.3389 26.039C36.9176 27.3147 36.4898 28.5883 36.0654 29.8629C35.1901 32.4919 34.3158 35.1211 33.4394 37.7498C33.2837 38.2171 33.0076 38.4374 32.5985 38.4342Z" fill="#E6007E"/>
<path d="M36.8252 31.6408C36.8275 30.2567 37.9528 29.1237 39.3316 29.1172C40.7182 29.1107 41.864 30.2591 41.859 31.6503C41.8538 33.0537 40.7246 34.1736 39.3222 34.1662C37.9371 34.1588 36.8229 33.0319 36.8252 31.6408ZM39.3359 32.4828C39.7974 32.485 40.1753 32.1113 40.1783 31.6499C40.1814 31.1941 39.7995 30.8047 39.3457 30.8009C38.8921 30.7971 38.5081 31.1808 38.5057 31.6403C38.5032 32.1041 38.8742 32.4805 39.3359 32.4828Z" fill="#E6007E"/>
<path d="M29.8275 34.1668C28.429 34.1644 27.3105 33.0322 27.3174 31.6259C27.3242 30.2445 28.4606 29.1143 29.8393 29.1182C31.2145 29.122 32.3512 30.2601 32.3561 31.6381C32.3611 33.0319 31.2239 34.1692 29.8275 34.1668ZM29.8278 32.483C30.2883 32.4854 30.672 32.1092 30.6756 31.6514C30.6792 31.2011 30.2898 30.8059 29.8386 30.802C29.3852 30.7979 28.9999 31.1823 28.9978 31.6406C28.9957 32.1067 29.364 32.4805 29.8278 32.483Z" fill="#E6007E"/>
<defs>
<filter id="filter0_d_294_2190" x="0.326172" y="0.326172" width="71.3477" height="71.3477" filterUnits="userSpaceOnUse" color-interpolation-filters="sRGB">
<feFlood flood-opacity="0" result="BackgroundImageFix"/>
<feColorMatrix in="SourceAlpha" type="matrix" values="0 0 0 0 0 0 0 0 0 0 0 0 0 0 0 0 0 0 127 0" result="hardAlpha"/>
<feOffset dy="3"/>
<feGaussianBlur stdDeviation="1.5"/>
<feComposite in2="hardAlpha" operator="out"/>
<feColorMatrix type="matrix" values="0 0 0 0 0 0 0 0 0 0 0 0 0 0 0 0 0 0 0.160784 0"/>
<feBlend mode="normal" in2="BackgroundImageFix" result="effect1_dropShadow_294_2190"/>
<feBlend mode="normal" in="SourceGraphic" in2="effect1_dropShadow_294_2190" result="shape"/>
</filter>
</defs>
</svg>
