<svg width="72" height="72" viewBox="0 0 72 72" fill="none" xmlns="http://www.w3.org/2000/svg">
<g filter="url(#filter0_d_2088_114)">
<path d="M68.6738 32.6738C68.6738 50.7191 54.0453 65.3477 36 65.3477C17.9547 65.3477 3.32617 50.7191 3.32617 32.6738C3.32617 14.6286 17.9547 0 36 0C54.0453 0 68.6738 14.6286 68.6738 32.6738Z" fill="white"/>
</g>
<path d="M29.888 47.4458C29.646 47.2859 29.5207 47.0642 29.4483 46.7789C29.1877 45.7523 28.9017 44.7322 28.6154 43.6734C28.2411 43.7708 27.8801 43.8627 27.5203 43.9587C26.8296 44.143 26.1384 44.3253 25.4499 44.5171C25.1451 44.6021 24.8559 44.636 24.636 44.3528C24.417 44.0707 24.5172 43.8034 24.6778 43.5271C25.8837 41.4512 27.0799 39.3697 28.2897 37.296C28.4054 37.0977 28.4039 36.9902 28.2296 36.8278C27.65 36.2872 27.3274 35.6044 27.2075 34.8256C27.1175 34.2407 26.8389 33.7691 26.3916 33.3826C25.0619 32.2334 24.7097 30.9139 25.2889 29.2715C25.4814 28.7257 25.4771 28.186 25.2849 27.641C24.709 26.0082 25.0754 24.6632 26.4023 23.5338C26.8442 23.1576 27.1086 22.6876 27.206 22.1159C27.4821 20.4947 28.5493 19.4209 30.1559 19.1451C30.7694 19.0397 31.2676 18.7533 31.6681 18.2726C32.7034 17.0304 34.1437 16.64 35.665 17.193C36.2626 17.4102 36.84 17.4123 37.4386 17.1948C38.9536 16.6443 40.3816 17.0195 41.418 18.2453C41.8499 18.7564 42.3757 19.053 43.0363 19.1579C44.4958 19.3895 45.6465 20.5362 45.8794 21.9928C45.985 22.652 46.2796 23.1777 46.7924 23.6086C48.0139 24.6348 48.3989 26.0639 47.8556 27.5503C47.6302 28.1674 47.6308 28.7608 47.8564 29.3776C48.4018 30.8683 47.997 32.3253 46.7697 33.3397C46.3324 33.7013 46.0193 34.1382 45.9308 34.7022C45.7886 35.6071 45.4172 36.3847 44.7023 37.003C44.7589 37.1051 44.8093 37.1996 44.8628 37.2923C46.0444 39.3364 47.2263 41.3804 48.4082 43.4244C48.4529 43.5016 48.4984 43.5786 48.5424 43.6562C48.6774 43.8945 48.6853 44.1332 48.5116 44.3518C48.3398 44.5678 48.1129 44.6238 47.8435 44.5509C46.8181 44.2735 45.791 44.0018 44.7644 43.7286C44.6981 43.7111 44.6303 43.6994 44.5324 43.6783C44.3467 44.3631 44.1633 45.0392 43.9803 45.7154C43.8844 46.0692 43.7717 46.4198 43.699 46.7784C43.64 47.0685 43.5017 47.2858 43.2599 47.4458H42.9016C42.7466 47.2858 42.5516 47.1491 42.4426 46.9623C41.132 44.7172 39.8356 42.464 38.5292 40.2166C38.4661 40.1081 38.3588 39.992 38.2463 39.9519C37.9487 39.8456 37.632 39.7942 37.3322 39.6938C36.8022 39.5166 36.281 39.5186 35.7547 39.7019C35.5208 39.7835 35.2847 39.8779 35.0421 39.9094C34.8126 39.9392 34.704 40.0568 34.599 40.2393C33.3068 42.4836 32.0118 44.7262 30.7056 46.9624C30.5965 47.1491 30.4014 47.2858 30.2461 47.4458H29.888ZM34.5551 18.1305C33.6953 18.1538 33.0888 18.4118 32.6379 18.9722C32.0305 19.7267 31.255 20.1672 30.3004 20.3323C29.2408 20.5155 28.5693 21.21 28.3939 22.2662C28.2446 23.1654 27.824 23.902 27.122 24.4876C26.2366 25.2259 25.9967 26.1207 26.3936 27.2063C26.7033 28.0533 26.6993 28.8893 26.3878 29.7358C25.9971 30.7971 26.2373 31.6983 27.1127 32.4307C27.8315 33.032 28.2543 33.7838 28.4008 34.7065C28.5588 35.701 29.2932 36.4404 30.287 36.5977C31.2118 36.7439 31.9663 37.1609 32.5716 37.8765C33.3246 38.7671 34.2046 38.9963 35.297 38.6018C36.1461 38.2951 36.9839 38.2963 37.832 38.6096C38.8887 38.9998 39.8115 38.7506 40.5326 37.8846C41.1246 37.1737 41.8707 36.7516 42.7838 36.6038C43.8148 36.4369 44.5211 35.7522 44.7011 34.7145C44.8661 33.7623 45.3067 32.9917 46.0577 32.3782C46.846 31.7343 47.1096 30.7772 46.7519 29.8303C46.4057 28.9142 46.4042 28.0205 46.7483 27.104C47.1075 26.1468 46.8586 25.2094 46.0635 24.5545C45.3061 23.9306 44.8613 23.1537 44.6975 22.1908C44.527 21.1879 43.8385 20.5131 42.8219 20.3337C41.9278 20.1759 41.1685 19.797 40.5791 19.0936C39.7943 18.1566 38.9313 17.9196 37.7857 18.3327C36.956 18.6319 36.1369 18.6295 35.3081 18.3299C35.0218 18.2264 34.7173 18.1725 34.5551 18.1305ZM43.6779 37.6308C43.3522 37.6983 43.0515 37.7567 42.7526 37.8233C42.3039 37.9233 41.8974 38.1231 41.6071 38.4773C41.098 39.0985 40.5089 39.5946 39.6924 39.839C40.744 41.6558 41.7812 43.4477 42.856 45.3047C43.0882 44.4386 43.2938 43.6636 43.504 42.8897C43.628 42.4335 43.8957 42.2741 44.3496 42.3848C44.6101 42.4483 44.8678 42.523 45.127 42.5916C45.6663 42.7341 46.2057 42.8758 46.8045 43.0335C45.7372 41.1893 44.7049 39.4054 43.6779 37.6308ZM29.4636 37.6406C28.4311 39.4258 27.401 41.2067 26.3708 42.988C26.4062 43.0076 26.4164 43.0183 26.4234 43.0164C27.1905 42.812 27.957 42.6056 28.7244 42.4019C29.2535 42.2613 29.5119 42.4099 29.6528 42.932C29.8207 43.5537 29.9873 44.1756 30.1554 44.7972C30.1947 44.9423 30.2378 45.0864 30.2978 45.297C31.3691 43.4453 32.4004 41.6629 33.4498 39.8488C32.5914 39.6063 31.9894 39.0648 31.4485 38.4258C31.1517 38.075 30.7341 37.8986 30.2853 37.806C30.0237 37.7521 29.7617 37.7005 29.4636 37.6406Z" fill="#E6067E" stroke="#E6007E" stroke-width="0.3"/>
<path d="M44.3349 28.3338C44.3275 32.5845 41.3827 35.8955 37.4913 36.3567C32.6936 36.9253 28.4835 32.9831 28.8372 28.1762C29.0638 25.0973 30.6614 22.896 33.4591 21.5698C33.5575 21.5232 33.6597 21.4819 33.764 21.4507C34.0453 21.3666 34.34 21.4966 34.4669 21.7539C34.6008 22.0257 34.5159 22.3448 34.253 22.5108C34.1448 22.579 34.0212 22.6233 33.9034 22.6756C31.1959 23.875 29.6365 26.7151 30.0767 29.6459C30.5064 32.507 32.8381 34.788 35.7168 35.1637C39.8222 35.6993 43.4536 32.3157 43.1201 28.2091C42.9088 25.6066 41.5574 23.7501 39.1793 22.6472C39.1162 22.6179 39.0509 22.5937 38.9888 22.5627C38.6684 22.4023 38.5415 22.1029 38.6631 21.7985C38.7874 21.4873 39.1146 21.3414 39.4507 21.4735C40.6884 21.9602 41.73 22.7213 42.5705 23.7488C43.7391 25.1774 44.3159 26.8213 44.3349 28.3338Z" fill="#E6067E" stroke="#E6007E" stroke-width="0.3"/>
<path d="M36.5667 20.9278C36.8971 20.9242 37.1607 21.1744 37.1691 21.4994C37.1775 21.829 36.8961 22.1142 36.5671 22.1095C36.2489 22.105 35.9801 21.8328 35.9795 21.5146C35.9789 21.1903 36.238 20.9314 36.5667 20.9278Z" fill="#E6067E" stroke="#E6007E" stroke-width="0.3"/>
<path d="M34.1649 30.5857C34.2047 30.3395 34.2525 30.0123 34.3134 29.6876C34.333 29.5832 34.3123 29.5145 34.2365 29.442C34.0348 29.2488 33.8335 29.0543 33.645 28.8484C33.3492 28.5253 33.2789 28.1459 33.4324 27.7388C33.5823 27.3411 33.8783 27.1195 34.3061 27.0729C34.5629 27.0449 34.8197 27.0103 35.0733 26.9625C35.1406 26.9498 35.2206 26.8901 35.2532 26.8298C35.3853 26.5844 35.4982 26.3287 35.6239 26.0798C35.8161 25.6993 36.1286 25.4964 36.5548 25.4932C36.9875 25.49 37.3062 25.6921 37.5023 26.0778C37.6312 26.331 37.7468 26.5909 37.8789 26.8422C37.9064 26.8944 37.9764 26.9468 38.0342 26.9569C38.309 27.0049 38.5864 27.0387 38.8629 27.0767C39.2828 27.1344 39.5899 27.3475 39.731 27.752C39.8744 28.163 39.7919 28.5375 39.4836 28.8527C39.2846 29.056 39.0765 29.2507 38.8841 29.46C38.8381 29.5099 38.8118 29.6062 38.822 29.6745C38.8616 29.9399 38.9237 30.2019 38.9696 30.4666C39.0434 30.8937 38.9025 31.2517 38.5627 31.5071C38.2285 31.7583 37.8501 31.7989 37.4652 31.6127C37.2095 31.4888 36.9576 31.3568 36.7074 31.2219C36.6159 31.1726 36.5398 31.1716 36.4469 31.2212C36.1827 31.3624 35.9197 31.5083 35.6453 31.6273C34.9363 31.9346 34.1677 31.4314 34.1649 30.5857ZM35.146 30.6834C35.149 30.7541 35.2077 30.7493 35.2867 30.7088C35.5624 30.5673 35.8362 30.422 36.1149 30.2868C36.4221 30.1377 36.7321 30.137 37.0388 30.2955C37.2865 30.4235 37.5336 30.5527 37.7832 30.6769C37.8341 30.7023 37.8951 30.7075 37.9513 30.722C37.9547 30.6626 37.9681 30.6016 37.9595 30.5438C37.926 30.3191 37.8952 30.0933 37.8459 29.8718C37.7469 29.4271 37.866 29.0582 38.196 28.7477C38.3842 28.5707 38.5637 28.3842 38.7445 28.1994C38.7702 28.1732 38.804 28.1168 38.7939 28.1017C38.773 28.0708 38.7265 28.0467 38.6874 28.0408C38.4473 28.0047 38.2069 27.9681 37.9654 27.9437C37.498 27.8965 37.1621 27.6771 36.9765 27.2352C36.8887 27.026 36.7836 26.8238 36.6803 26.6215C36.6545 26.5708 36.6053 26.532 36.5669 26.4877C36.5272 26.5302 36.4753 26.5665 36.4499 26.6163C36.3303 26.8508 36.2207 27.0904 36.1023 27.3256C35.9326 27.663 35.6604 27.8647 35.2852 27.9207C35.0144 27.9612 34.7427 27.9959 34.472 28.0373C34.4249 28.0444 34.3809 28.0718 34.3354 28.0899C34.3614 28.137 34.3786 28.1927 34.4147 28.2301C34.5979 28.4197 34.7858 28.6049 34.9728 28.7909C35.232 29.0486 35.3428 29.3604 35.2957 29.7213C35.2556 30.0284 35.201 30.3337 35.146 30.6834Z" fill="#E6067E" stroke="#E6007E" stroke-width="0.3"/>
<defs>
<filter id="filter0_d_2088_114" x="0.326172" y="0" width="71.3477" height="71.3477" filterUnits="userSpaceOnUse" color-interpolation-filters="sRGB">
<feFlood flood-opacity="0" result="BackgroundImageFix"/>
<feColorMatrix in="SourceAlpha" type="matrix" values="0 0 0 0 0 0 0 0 0 0 0 0 0 0 0 0 0 0 127 0" result="hardAlpha"/>
<feOffset dy="3"/>
<feGaussianBlur stdDeviation="1.5"/>
<feComposite in2="hardAlpha" operator="out"/>
<feColorMatrix type="matrix" values="0 0 0 0 0 0 0 0 0 0 0 0 0 0 0 0 0 0 0.160784 0"/>
<feBlend mode="normal" in2="BackgroundImageFix" result="effect1_dropShadow_2088_114"/>
<feBlend mode="normal" in="SourceGraphic" in2="effect1_dropShadow_2088_114" result="shape"/>
</filter>
</defs>
</svg>
