<svg width="64" height="64" viewBox="0 0 64 64" fill="none" xmlns="http://www.w3.org/2000/svg">
<circle cx="32" cy="32" r="31" fill="white" stroke="#E6007E" stroke-width="2"/>
<path d="M29.4519 47.7961C28.8976 47.6094 28.3184 47.4739 27.7971 47.2196C27.398 47.0249 27.0386 46.7138 26.719 46.3966C24.2643 43.9612 21.8195 41.5158 19.3802 39.0652C17.5479 37.2244 17.5456 34.5433 19.3397 32.6651C20.2496 31.7126 21.3098 31.0528 22.6511 31.0775C23.2161 31.088 23.5518 30.8787 23.9176 30.5161C24.7428 29.6983 25.7208 29.1021 26.8126 28.6975C26.879 28.6729 26.943 28.6423 27.0512 28.5961C24.7651 27.2049 23.4938 25.2302 23.5215 22.5495C23.5424 20.537 24.3769 18.8651 25.9069 17.5571C28.7262 15.147 33.128 15.59 35.4097 18.5028C36.2688 19.5996 36.762 20.8356 36.8544 22.2316C36.946 23.6157 36.6412 24.9021 35.933 26.0922C35.221 27.2888 34.2163 28.1682 32.9963 28.7497C33.9361 29.3073 34.8708 29.8618 35.8998 30.4722C35.9214 30.4387 35.9728 30.318 36.0589 30.2317C38.0839 28.2012 40.1123 26.1741 42.1407 24.1469C42.7005 23.5875 43.1971 23.698 43.4699 24.4438C44.4392 27.0931 45.4021 29.7448 46.3815 32.3904C46.5394 32.8171 46.4637 33.1277 46.1429 33.4475C41.847 37.7312 37.5565 42.0202 33.272 46.3153C32.5017 47.0875 31.619 47.6144 30.5247 47.7536C30.4971 47.7571 30.4721 47.7815 30.4458 47.7961H29.4519ZM42.4798 25.6014C42.365 25.7526 42.3062 25.8517 42.2273 25.9307C38.3483 29.8116 34.4678 33.6908 30.5872 37.5701C30.0886 38.0685 29.8024 38.0692 29.3039 37.5713C27.9197 36.1884 26.5356 34.8054 25.1524 33.4214C24.5868 32.8555 23.9307 32.4674 23.1185 32.3984C21.5895 32.2685 20.5353 33.0594 19.7907 34.2665C18.9773 35.5853 19.2306 37.0407 20.358 38.171C22.778 40.5972 25.2013 43.0202 27.6287 45.439C27.8395 45.649 28.0722 45.8516 28.3283 45.9993C29.6851 46.7824 31.129 46.5768 32.2646 45.4425C36.4691 41.243 40.6686 37.0384 44.8759 32.8416C45.0279 32.69 45.0387 32.5717 44.9694 32.3844C44.2909 30.5529 43.621 28.7183 42.9488 26.8846C42.8042 26.4902 42.6603 26.0954 42.4798 25.6014ZM24.9355 23.6827C24.9725 23.8442 24.9964 23.965 25.028 24.0837C25.6072 26.2575 27.5372 27.8488 29.8084 28.0262C31.9854 28.1962 34.138 26.9156 35.0557 24.9192C35.1386 24.739 35.0688 24.6593 34.9601 24.5526C33.9045 23.5158 32.8475 22.4804 31.8009 21.4346C31.6566 21.2903 31.5402 21.293 31.3687 21.356C30.2734 21.759 29.1749 22.1531 28.0772 22.5494C27.0393 22.9243 26.001 23.2984 24.9355 23.6827ZM24.8741 22.292C25.0094 22.2446 25.116 22.2082 25.2219 22.17C27.2732 21.4307 29.3273 20.699 31.3734 19.9456C31.7907 19.792 32.0983 19.8608 32.4064 20.1705C33.3483 21.1172 34.3049 22.0494 35.2566 22.9863C35.3303 23.0589 35.4113 23.1242 35.514 23.2151C35.8205 20.2312 33.5589 17.3793 30.2758 17.3231C27.1429 17.2695 24.9841 19.8044 24.8741 22.292ZM29.2675 29.8141C27.4314 29.5015 26.084 30.392 24.8094 31.4788C26.5101 32.6285 27.7257 34.2768 29.2675 35.6216V29.8141ZM30.6416 29.7985V35.5478C32.0145 34.1765 33.3946 32.7979 34.7742 31.4199C33.7156 30.411 31.8102 29.6536 30.6416 29.7985Z" fill="#E6007E"/>
<path d="M25.5456 38.0024C25.5437 38.6181 25.0243 38.9376 24.5971 38.707C24.4814 38.6446 24.3797 38.5493 24.2854 38.4553C23.4796 37.6528 22.6744 36.8497 21.8763 36.0396C21.756 35.9175 21.6337 35.7715 21.5818 35.6137C21.495 35.3499 21.5705 35.0992 21.8029 34.9238C22.0412 34.7439 22.2977 34.7312 22.5517 34.8899C22.6468 34.9494 22.7318 35.0281 22.8118 35.1079C23.6168 35.9111 24.4249 36.7115 25.2191 37.5253C25.3762 37.6864 25.4781 37.9016 25.5456 38.0024Z" fill="#E6007E"/>
</svg>
