<svg width="72" height="72" viewBox="0 0 72 72" fill="none" xmlns="http://www.w3.org/2000/svg">
<g filter="url(#filter0_d_237_760)">
<path d="M68.6738 32.6738C68.6738 50.7191 54.0453 65.3477 36 65.3477C17.9547 65.3477 3.32617 50.7191 3.32617 32.6738C3.32617 14.6286 17.9547 0 36 0C54.0453 0 68.6738 14.6286 68.6738 32.6738Z" fill="white"/>
</g>
<path d="M21 44.4963C21.1177 44.0651 21.1916 43.6159 21.3605 43.2057C22.1823 41.2105 23.69 40.0626 25.8037 39.6901C25.8977 39.6735 25.9913 39.6545 26.1665 39.621C23.8835 39.2031 22.8353 37.3481 22.9996 35.6895C23.1842 33.8259 24.7277 32.4251 26.5744 32.4182C28.423 32.4113 29.9619 33.7803 30.1739 35.661C30.3589 37.3014 29.332 39.1915 27.0906 39.6266C28.436 39.8062 29.6305 40.311 30.6399 41.2777C31.2882 40.4702 32.035 39.8046 32.9339 39.3152C33.8246 38.8304 34.775 38.553 35.7947 38.427C34.3334 38.1738 33.1623 37.4699 32.358 36.2269C31.5441 34.9691 31.3581 33.6032 31.8071 32.1738C32.4858 30.0127 34.6274 28.5961 36.8206 28.8297C39.1721 29.0804 40.979 30.9146 41.1798 33.2316C41.3638 35.3563 39.9502 37.9495 36.974 38.4326C39.0776 38.6591 40.7897 39.5966 42.1246 41.2755C43.1276 40.3218 44.3247 39.8039 45.6784 39.6269C43.437 39.1917 42.4099 37.3015 42.5949 35.661C42.807 33.7801 44.3459 32.4112 46.1944 32.4182C48.0413 32.4251 49.5846 33.826 49.7692 35.6897C49.9333 37.3476 48.8858 39.2027 46.6198 39.618C46.9543 39.6862 47.2292 39.724 47.4934 39.7992C49.8241 40.463 51.2766 41.9435 51.7157 44.3608C51.7242 44.4076 51.7506 44.4513 51.7688 44.4963V46.4194C51.5818 46.7548 51.2914 46.8455 50.9182 46.8452C41.229 46.8387 31.5399 46.8387 21.8507 46.8452C21.4776 46.8455 21.187 46.755 21 46.4194V44.4963ZM30.3699 45.6198H42.3713C42.4293 43.7854 41.4311 41.5602 39.3451 40.4207C37.2332 39.2672 35.1056 39.3279 33.0869 40.6365C31.3101 41.7884 30.4514 43.4943 30.3699 45.6198ZM36.3943 30.0143C34.4085 30.0092 32.781 31.6313 32.7796 33.6167C32.7784 35.5906 34.3867 37.2112 36.3595 37.2239C38.3458 37.2367 39.9803 35.6213 39.9892 33.6366C39.9981 31.6505 38.3794 30.0195 36.3943 30.0143ZM29.1746 45.628C29.199 44.5076 29.4367 43.4645 29.9005 42.4714C29.9361 42.3952 29.8731 42.2274 29.8022 42.1539C27.9991 40.2814 24.7777 40.4385 23.1497 42.4644C22.4043 43.3921 22.1123 44.4424 22.2217 45.628H29.1746ZM43.6905 45.6168H50.6051C50.559 45.1255 50.5723 44.6462 50.4614 44.1975C50.0488 42.5289 48.9751 41.4501 47.3323 41.0027C45.6652 40.5487 44.1944 40.9908 42.937 42.1697C42.8076 42.2909 42.8111 42.391 42.8785 42.5349C42.9886 42.7696 43.1143 43.0047 43.1739 43.2539C43.3588 44.0272 43.5158 44.8073 43.6905 45.6168ZM26.5896 33.6213C25.2873 33.6207 24.2013 34.6993 24.1872 36.0072C24.1732 37.3151 25.2745 38.4239 26.5881 38.4245C27.8904 38.4251 28.9764 37.3465 28.9905 36.0387C29.0045 34.7308 27.9033 33.6219 26.5896 33.6213ZM46.1677 33.6213C44.8614 33.6323 43.7809 34.717 43.7783 36.0202C43.7757 37.3325 44.883 38.4355 46.1921 38.4245C47.4985 38.4136 48.579 37.3288 48.5816 36.0257C48.5842 34.7133 47.4769 33.6104 46.1677 33.6213Z" fill="#E6007E"/>
<path d="M33.1719 26.5329C33.3003 25.7713 33.4285 24.9611 33.5795 24.1552C33.6127 23.978 33.5629 23.8786 33.4456 23.7659C32.9041 23.2457 32.372 22.7155 31.8299 22.196C31.6171 21.992 31.4983 21.7637 31.5998 21.4728C31.6974 21.1931 31.9304 21.0956 32.2068 21.0581C32.9402 20.9584 33.6721 20.847 34.4056 20.7483C34.5912 20.7233 34.6999 20.6466 34.7831 20.4682C35.0999 19.7888 35.4418 19.121 35.7662 18.445C35.8878 18.1913 36.0563 18.0063 36.351 18.0002C36.662 17.9938 36.8368 18.1883 36.9631 18.4505C37.2884 19.1262 37.6269 19.7954 37.9446 20.4746C38.0281 20.6532 38.1447 20.7242 38.3279 20.7489C39.0614 20.8482 39.7934 20.9581 40.5267 21.0592C40.8023 21.0973 41.0319 21.1967 41.1286 21.4796C41.2249 21.7612 41.1156 21.9845 40.9132 22.1804C40.3809 22.6958 39.8577 23.2209 39.3169 23.7272C39.1578 23.8762 39.1164 24.0206 39.1544 24.2269C39.2886 24.9546 39.4037 25.6859 39.5381 26.4135C39.5882 26.6844 39.545 26.9177 39.3266 27.0883C39.0939 27.2702 38.8424 27.236 38.5939 27.105C37.9307 26.7549 37.263 26.413 36.6053 26.0527C36.4255 25.9541 36.2868 25.9641 36.1129 26.0585C35.445 26.4208 34.7739 26.778 34.0958 27.121C33.6215 27.3609 33.1539 27.0788 33.1719 26.5329ZM36.3615 19.967C36.1492 20.4022 35.9314 20.7834 35.774 21.1882C35.5868 21.6698 35.263 21.8821 34.7548 21.9116C34.3373 21.936 33.9241 22.0307 33.5337 22.0904C33.8429 22.4213 34.1124 22.7626 34.4357 23.0416C34.807 23.3622 34.9164 23.7126 34.7975 24.1842C34.6918 24.6033 34.6467 25.0377 34.5663 25.516C35.0428 25.2664 35.4755 25.06 35.8871 24.8179C36.2184 24.623 36.5128 24.6299 36.8417 24.8216C37.2512 25.0601 37.6805 25.2643 38.1607 25.5142C38.0705 24.9854 38.0058 24.5221 37.9092 24.0656C37.8288 23.686 37.9166 23.3964 38.2063 23.1261C38.5537 22.802 38.8596 22.4336 39.1833 22.0847C38.7221 22.0167 38.2326 21.9328 37.7398 21.8762C37.3941 21.8366 37.1797 21.6674 37.0383 21.3532C36.8339 20.8995 36.6028 20.4579 36.3615 19.967Z" fill="#E6007E"/>
<path d="M23.6854 29.579C23.7563 29.1708 23.8305 28.6759 23.9322 28.1867C23.9825 27.945 23.935 27.7767 23.7459 27.61C23.4233 27.3258 23.1303 27.0082 22.8157 26.7145C22.5916 26.5054 22.4689 26.2681 22.5769 25.9657C22.6771 25.6851 22.9163 25.5975 23.1911 25.5624C23.6375 25.5055 24.0817 25.4316 24.5283 25.3755C24.724 25.3508 24.8436 25.2709 24.9284 25.0803C25.1192 24.6515 25.3426 24.2372 25.5478 23.8145C25.6668 23.5696 25.8451 23.4083 26.1261 23.408C26.4082 23.4077 26.5854 23.5734 26.7039 23.8162C26.9145 24.2474 27.1361 24.6735 27.3346 25.11C27.411 25.278 27.5184 25.3483 27.6924 25.3707C28.1388 25.4281 28.5826 25.5056 29.0294 25.5589C29.3287 25.5945 29.5807 25.6892 29.6842 25.9963C29.7892 26.308 29.628 26.5313 29.4128 26.7354C29.0787 27.0523 28.7429 27.3684 28.4273 27.7032C28.3486 27.7867 28.2985 27.9462 28.3135 28.0604C28.3762 28.5359 28.4656 29.008 28.5515 29.4802C28.6019 29.7571 28.5627 30.0029 28.3241 30.1786C28.0957 30.3468 27.8575 30.3185 27.6181 30.1912C27.1856 29.961 26.7558 29.7248 26.3141 29.5137C26.2105 29.4642 26.0434 29.4622 25.9404 29.5114C25.4805 29.7309 25.0384 29.9874 24.58 30.2103C24.117 30.4355 23.6749 30.1583 23.6854 29.579ZM27.8209 26.5351C26.8833 26.666 26.3697 26.2316 26.1224 25.3674C25.8894 26.2517 25.3379 26.6394 24.4373 26.5579C24.7231 26.8935 25.0631 27.1375 25.1663 27.4577C25.2713 27.7833 25.1429 28.1842 25.1183 28.5295C25.4599 28.398 25.8007 28.1645 26.1414 28.1646C26.4733 28.1648 26.8051 28.4041 27.1298 28.5355C27.1045 28.172 26.9792 27.784 27.0828 27.472C27.19 27.1493 27.5194 26.9004 27.8209 26.5351Z" fill="#E6007E"/>
<path d="M44.1213 29.56C44.1909 29.1591 44.2657 28.6746 44.3625 28.1946C44.41 27.9587 44.3788 27.7851 44.1847 27.6153C43.8461 27.3191 43.5381 26.9881 43.2116 26.6778C43.0032 26.4798 42.9137 26.2489 43.0071 25.9735C43.0986 25.7039 43.3222 25.6038 43.5865 25.5676C44.0424 25.5052 44.4972 25.4351 44.9535 25.3767C45.1457 25.3521 45.2735 25.2838 45.3586 25.088C45.5377 24.6759 45.7536 24.28 45.948 23.8744C46.0724 23.6151 46.239 23.411 46.5513 23.4087C46.8626 23.4064 47.035 23.6007 47.1596 23.864C47.352 24.2705 47.5678 24.6665 47.7496 25.0775C47.8387 25.2789 47.97 25.3559 48.177 25.3802C48.6239 25.4328 49.068 25.5075 49.5143 25.5658C49.7924 25.6022 50.0171 25.7103 50.1143 25.9899C50.2126 26.2724 50.0947 26.4941 49.8934 26.6881C49.5545 27.0146 49.2228 27.3487 48.8789 27.6696C48.7501 27.7897 48.6976 27.8987 48.7375 28.0853C48.8376 28.5543 48.9049 29.0303 48.9882 29.503C49.0352 29.7694 48.9881 30.0056 48.7631 30.1751C48.5368 30.3454 48.2984 30.3224 48.058 30.1948C47.6252 29.9651 47.1863 29.7467 46.7592 29.507C46.6078 29.422 46.494 29.4323 46.3484 29.5122C45.9014 29.7574 45.4529 30.0018 44.9929 30.221C44.5346 30.4393 44.0987 30.1411 44.1213 29.56ZM47.5936 28.5859C47.2688 27.7331 47.503 27.099 48.2516 26.5997C47.3423 26.635 46.7843 26.2589 46.5637 25.3615C46.3158 26.226 45.7871 26.6591 44.8583 26.6045C45.6453 27.1026 45.821 27.7542 45.5079 28.6064C46.2099 28.0226 46.8755 28.016 47.5936 28.5859Z" fill="#E6007E"/>
<path d="M40.7797 43.7985C40.7601 44.1186 40.626 44.3089 40.3581 44.3963C40.0695 44.4903 39.8537 44.3791 39.6833 44.1482C39.4062 43.773 39.1419 43.3873 38.8465 43.0271C38.7101 42.8608 38.509 42.749 38.3446 42.604C38.0648 42.3574 38.0191 42.0114 38.2239 41.7521C38.4202 41.5037 38.7651 41.4555 39.058 41.6539C39.7663 42.1335 40.3125 42.7591 40.6956 43.5241C40.7435 43.6196 40.7597 43.7311 40.7797 43.7985Z" fill="#E6007E"/>
<path d="M36.9803 41.4348C36.9782 41.7497 36.6948 42.0298 36.3809 42.0276C36.0659 42.0253 35.7859 41.7422 35.7881 41.4281C35.7903 41.1132 36.0733 40.8333 36.3876 40.8353C36.7023 40.8373 36.9825 41.1207 36.9803 41.4348Z" fill="#E6007E"/>
<defs>
<filter id="filter0_d_237_760" x="0.326172" y="0" width="71.3477" height="71.3477" filterUnits="userSpaceOnUse" color-interpolation-filters="sRGB">
<feFlood flood-opacity="0" result="BackgroundImageFix"/>
<feColorMatrix in="SourceAlpha" type="matrix" values="0 0 0 0 0 0 0 0 0 0 0 0 0 0 0 0 0 0 127 0" result="hardAlpha"/>
<feOffset dy="3"/>
<feGaussianBlur stdDeviation="1.5"/>
<feComposite in2="hardAlpha" operator="out"/>
<feColorMatrix type="matrix" values="0 0 0 0 0 0 0 0 0 0 0 0 0 0 0 0 0 0 0.160784 0"/>
<feBlend mode="normal" in2="BackgroundImageFix" result="effect1_dropShadow_237_760"/>
<feBlend mode="normal" in="SourceGraphic" in2="effect1_dropShadow_237_760" result="shape"/>
</filter>
</defs>
</svg>
